<?xml version="1.0" encoding="utf-8"?>
<!-- Generator: Adobe Illustrator 21.0.2, SVG Export Plug-In . SVG Version: 6.00 Build 0)  -->
<svg version="1.1" id="Layer_1" xmlns="http://www.w3.org/2000/svg" xmlns:xlink="http://www.w3.org/1999/xlink" x="0px" y="0px"
	 viewBox="0 0 64 64" style="enable-background:new 0 0 64 64;" xml:space="preserve">
<style type="text/css">
	.st0{fill:#212A33;}
	.st1{fill:#FFFFFF;}
	.st2{fill:#EC1F27;}
	.st3{fill:#4D555C;}
	.st4{fill:#F2F2F2;}
	.st5{fill:#F7F7F8;}
</style>
<g>
	<path class="st0" d="M52.6,40c-0.4,1.6-0.6,3.3-0.6,5c0,1.7,0.2,3.4,0.6,5H11c-1.4,0-2.6-0.5-3.6-1.5c-0.9-1-1.5-2.2-1.4-3.6
		c0-2.7,2.5-4.9,5.4-4.9H52.6 M58.8,34H11.4C5.3,34,0.1,38.7,0,44.8C-0.1,51,4.9,56,11,56h47.8c1.6,0,2.5-1.8,1.6-3.2
		C58.9,50.6,58,47.9,58,45s0.9-5.6,2.4-7.8C61.3,35.8,60.4,34,58.8,34L58.8,34z"/>
</g>
<g>
	<path class="st0" d="M53,14c1.4,0,2.6,0.5,3.6,1.5c0.9,1,1.5,2.2,1.4,3.6c0,2.7-2.5,4.9-5.4,4.9H11.4c0.4-1.6,0.6-3.3,0.6-5
		c0-1.7-0.2-3.4-0.6-5H53 M53,8H5.2c-1.6,0-2.5,1.8-1.6,3.2C5.1,13.4,6,16.1,6,19c0,2.9-0.9,5.6-2.4,7.8c-0.9,1.3,0,3.2,1.6,3.2
		h47.4c6.1,0,11.3-4.7,11.4-10.8C64.1,13,59.1,8,53,8L53,8z"/>
</g>
</svg>
