<?xml version="1.0" encoding="utf-8"?>
<!-- Generator: Adobe Illustrator 21.0.2, SVG Export Plug-In . SVG Version: 6.00 Build 0)  -->
<svg version="1.1" id="Layer_1" xmlns="http://www.w3.org/2000/svg" xmlns:xlink="http://www.w3.org/1999/xlink" x="0px" y="0px"
	 viewBox="0 0 64 64" style="enable-background:new 0 0 64 64;" xml:space="preserve">
<style type="text/css">
	.st0{fill:#212A33;}
	.st1{fill:#FFFFFF;}
	.st2{fill:#EC1F27;}
	.st3{fill:#4D555C;}
	.st4{fill:#F2F2F2;}
	.st5{fill:#F7F7F8;}
</style>
<path class="st0" d="M41,57h-4c-0.6,0-1-0.4-1-1V24c0-0.6,0.4-1,1-1h4c0.6,0,1,0.4,1,1v32C42,56.6,41.6,57,41,57z"/>
<path class="st0" d="M55,57h-4c-0.6,0-1-0.4-1-1V24c0-0.6,0.4-1,1-1h4c0.6,0,1,0.4,1,1v32C56,56.6,55.6,57,55,57z"/>
<path class="st0" d="M27,57h-4c-0.6,0-1-0.4-1-1V24c0-0.6,0.4-1,1-1h4c0.6,0,1,0.4,1,1v32C28,56.6,27.6,57,27,57z"/>
<path class="st0" d="M13,57H9c-0.6,0-1-0.4-1-1V24c0-0.6,0.4-1,1-1h4c0.6,0,1,0.4,1,1v32C14,56.6,13.6,57,13,57z"/>
<path class="st0" d="M61,64H3c-0.6,0-1-0.4-1-1v-2c0-0.6,0.4-1,1-1h58c0.6,0,1,0.4,1,1v2C62,63.6,61.6,64,61,64z"/>
<path class="st0" d="M2,19v-1.4c0-0.4,0.2-0.7,0.6-0.9L31.1,2.4c0.6-0.3,1.2-0.3,1.8,0l28.6,14.3c0.3,0.2,0.6,0.5,0.6,0.9V19
	c0,0.6-0.4,1-1,1H3C2.4,20,2,19.6,2,19z"/>
<circle class="st5" cx="32" cy="12" r="3"/>
</svg>
