<?xml version="1.0" encoding="utf-8"?>
<!-- Generator: Adobe Illustrator 21.0.2, SVG Export Plug-In . SVG Version: 6.00 Build 0)  -->
<svg version="1.1" id="Layer_1" xmlns="http://www.w3.org/2000/svg" xmlns:xlink="http://www.w3.org/1999/xlink" x="0px" y="0px"
	 viewBox="0 0 64 64" style="enable-background:new 0 0 64 64;" xml:space="preserve">
<style type="text/css">
	.st0{fill:#212A33;}
	.st1{fill:#FFFFFF;}
	.st2{fill:#EC1F27;}
	.st3{fill:#4D555C;}
	.st4{fill:#F2F2F2;}
	.st5{fill:#F7F7F8;}
</style>
<g>
	<path class="st0" d="M60,25h-1.3L53.4,8.4c-0.3-0.8-1-1.4-1.9-1.4H12.5c-0.9,0-1.6,0.6-1.9,1.4L5.3,25H4c-1.1,0-2,0.9-2,2v21
		c0,1.1,0.9,2,2,2h3v7c0,0.6,0.4,1,1,1h5c0.6,0,1-0.4,1-1v-7h36v7c0,0.6,0.4,1,1,1h5c0.6,0,1-0.4,1-1v-7h3c1.1,0,2-0.9,2-2V27
		C62,25.9,61.1,25,60,25z M9.9,23.7l3.8-12c0.1-0.4,0.5-0.7,1-0.7h34.7c0.4,0,0.8,0.3,1,0.7l3.8,12c0.2,0.6-0.3,1.3-1,1.3H10.8
		C10.2,25,9.7,24.3,9.9,23.7z M16,40c0,0.6-0.4,1-1,1H8c-0.6,0-1-0.4-1-1v-3c0-0.6,0.4-1,1-1h7c0.6,0,1,0.4,1,1V40z M57,40
		c0,0.6-0.4,1-1,1h-7c-0.6,0-1-0.4-1-1v-3c0-0.6,0.4-1,1-1h7c0.6,0,1,0.4,1,1V40z"/>
</g>
</svg>
