<?xml version="1.0" encoding="utf-8"?>
<!-- Generator: Adobe Illustrator 21.0.2, SVG Export Plug-In . SVG Version: 6.00 Build 0)  -->
<svg version="1.1" id="Layer_1" xmlns="http://www.w3.org/2000/svg" xmlns:xlink="http://www.w3.org/1999/xlink" x="0px" y="0px"
	 viewBox="0 0 64 64" style="enable-background:new 0 0 64 64;" xml:space="preserve">
<style type="text/css">
	.st0{fill:#212A33;}
	.st1{fill:#FFFFFF;}
	.st2{fill:#EC1F27;}
	.st3{fill:#4D555C;}
	.st4{fill:#F2F2F2;}
	.st5{fill:#F7F7F8;}
</style>
<g>
	<circle class="st0" cx="31" cy="32" r="20"/>
</g>
<g>
	<rect x="2" y="30" class="st1" width="60" height="32"/>
	<path class="st0" d="M60,32v28H4V32H60 M63,28H1c-0.6,0-1,0.4-1,1v34c0,0.6,0.4,1,1,1h62c0.6,0,1-0.4,1-1V29C64,28.4,63.6,28,63,28
		L63,28z"/>
</g>
<g>
	<path class="st0" d="M32,42c3.3,0,6,2.7,6,6v14H26V48C26,44.7,28.7,42,32,42 M32,40L32,40c-4.4,0-8,3.6-8,8v16h16V48
		C40,43.6,36.4,40,32,40L32,40z"/>
</g>
<g>
	<path class="st0" d="M18,42c3.3,0,6,2.7,6,6v14H12V48C12,44.7,14.7,42,18,42 M18,40L18,40c-4.4,0-8,3.6-8,8v16h16V48
		C26,43.6,22.4,40,18,40L18,40z"/>
</g>
<g>
	<path class="st0" d="M46,42c3.3,0,6,2.7,6,6v14H40V48C40,44.7,42.7,42,46,42 M46,40L46,40c-4.4,0-8,3.6-8,8v16h16V48
		C54,43.6,50.4,40,46,40L46,40z"/>
</g>
<rect x="31" class="st0" width="2" height="14"/>
<g>
	<path class="st0" d="M42,2v4h-9V2H42 M44,0H31v8h13V0L44,0z"/>
</g>
</svg>
