<?xml version="1.0" encoding="utf-8"?>
<!-- Generator: Adobe Illustrator 21.0.2, SVG Export Plug-In . SVG Version: 6.00 Build 0)  -->
<svg version="1.1" id="Layer_1" xmlns="http://www.w3.org/2000/svg" xmlns:xlink="http://www.w3.org/1999/xlink" x="0px" y="0px"
	 viewBox="0 0 64 64" style="enable-background:new 0 0 64 64;" xml:space="preserve">
<style type="text/css">
	.st0{fill:#212A33;}
	.st1{fill:#FFFFFF;}
	.st2{fill:#EC1F27;}
	.st3{fill:#4D555C;}
	.st4{fill:#F2F2F2;}
	.st5{fill:#F7F7F8;}
</style>
<g>
	<path class="st1" d="M18,19l4-13.3C22.1,5.3,22.5,5,23,5h18c0.4,0,0.8,0.3,1,0.7L46,19H18z"/>
	<path class="st0" d="M39.5,8l2.4,8H22.1l2.4-8H39.5 M41,2H23c-1.8,0-3.3,1.2-3.8,2.9L14,22h36L44.9,4.9C44.3,3.2,42.8,2,41,2L41,2z
		"/>
</g>
<g>
	<g>
		<path class="st0" d="M61,58H3c-0.6,0-1-0.4-1-1V17c0-0.6,0.4-1,1-1h58c0.6,0,1,0.4,1,1v40C62,57.6,61.6,58,61,58z"/>
	</g>
	<g>
		<g>
			<path class="st1" d="M54,24v26H10V24H54 M61,16H3c-0.6,0-1,0.4-1,1v40c0,0.6,0.4,1,1,1h58c0.6,0,1-0.4,1-1V17
				C62,16.4,61.6,16,61,16L61,16z"/>
		</g>
	</g>
	<g>
		<g>
			<path class="st0" d="M58,20v34H6V20H58 M61,16H3c-0.6,0-1,0.4-1,1v40c0,0.6,0.4,1,1,1h58c0.6,0,1-0.4,1-1V17
				C62,16.4,61.6,16,61,16L61,16z"/>
		</g>
	</g>
</g>
<path class="st1" d="M34,46h-4c-0.6,0-1-0.4-1-1V29c0-0.6,0.4-1,1-1h4c0.6,0,1,0.4,1,1v16C35,45.6,34.6,46,34,46z"/>
<path class="st1" d="M23,39v-4c0-0.6,0.4-1,1-1h16c0.6,0,1,0.4,1,1v4c0,0.6-0.4,1-1,1H24C23.4,40,23,39.6,23,39z"/>
</svg>
