<?xml version="1.0" encoding="utf-8"?>
<!-- Generator: Adobe Illustrator 21.0.2, SVG Export Plug-In . SVG Version: 6.00 Build 0)  -->
<svg version="1.1" id="Layer_1" xmlns="http://www.w3.org/2000/svg" xmlns:xlink="http://www.w3.org/1999/xlink" x="0px" y="0px"
	 viewBox="0 0 64 64" style="enable-background:new 0 0 64 64;" xml:space="preserve">
<style type="text/css">
	.st0{fill:#212A33;}
	.st1{fill:#FFFFFF;}
	.st2{fill:#EC1F27;}
	.st3{fill:#4D555C;}
	.st4{fill:#F2F2F2;}
	.st5{fill:#F7F7F8;}
</style>
<g>
	<path class="st0" d="M46,19.5l-14-4.8l-14,4.8V35c0,8.4,10.8,14.2,14,14.9c3.2-0.7,14-6.4,14-14.9V19.5z"/>
</g>
<g>
	<path class="st0" d="M32,6.2l22,7.6V35c0,14.6-17.3,22.9-22,22.9S10,49.6,10,35V13.8L32,6.2 M32,2L6,11c0,0,0,5.8,0,24
		c0,16.8,18.9,26.9,26,26.9c7.1,0,26-10.1,26-26.9c0-18.2,0-24,0-24L32,2L32,2z"/>
</g>
</svg>
