<?xml version="1.0" encoding="utf-8"?>
<!-- Generator: Adobe Illustrator 19.2.1, SVG Export Plug-In . SVG Version: 6.00 Build 0)  -->
<svg version="1.1" id="Layer_1" xmlns="http://www.w3.org/2000/svg" xmlns:xlink="http://www.w3.org/1999/xlink" x="0px" y="0px"
	 viewBox="0 0 18 18" style="enable-background:new 0 0 18 18;" xml:space="preserve">
<style type="text/css">
	.st0{fill:#FFFFFF;}
</style>
<path id="White_2_" class="st0" d="M16.1,1H1.9C1.4,1,1,1.4,1,1.9v14.2C1,16.6,1.4,17,1.9,17h7.7v-6.2H7.5V8.4h2.1V6.6
	c0-2.1,1.3-3.2,3.1-3.2c0.9,0,1.6,0.1,1.9,0.1v2.2l-1.3,0c-1,0-1.2,0.5-1.2,1.2v1.5h2.4l-0.3,2.4H12V17h4.1c0.5,0,0.9-0.4,0.9-0.9
	V1.9C17,1.4,16.6,1,16.1,1z"/>
</svg>
