<?xml version="1.0" encoding="utf-8"?>
<!-- Generator: Adobe Illustrator 19.2.1, SVG Export Plug-In . SVG Version: 6.00 Build 0)  -->
<svg version="1.1" id="Layer_1" xmlns="http://www.w3.org/2000/svg" xmlns:xlink="http://www.w3.org/1999/xlink" x="0px" y="0px"
	 viewBox="0 0 18 18" style="enable-background:new 0 0 18 18;" xml:space="preserve">
<style type="text/css">
	.st0{fill:#FFFFFF;}
</style>
<path class="st0" d="M5.7,16.3c6.8,0,10.5-5.6,10.5-10.5c0-0.2,0-0.3,0-0.5c0.7-0.5,1.3-1.2,1.8-1.9c-0.7,0.3-1.4,0.5-2.1,0.6
	c0.8-0.5,1.3-1.2,1.6-2c-0.7,0.4-1.5,0.7-2.3,0.9c-0.7-0.7-1.6-1.2-2.7-1.2c-2,0-3.7,1.7-3.7,3.7c0,0.3,0,0.6,0.1,0.8
	C5.8,6.1,3.1,4.6,1.3,2.4C0.9,2.9,0.8,3.5,0.8,4.2c0,1.3,0.7,2.4,1.6,3.1c-0.6,0-1.2-0.2-1.7-0.5c0,0,0,0,0,0c0,1.8,1.3,3.3,3,3.6
	c-0.3,0.1-0.6,0.1-1,0.1c-0.2,0-0.5,0-0.7-0.1c0.5,1.5,1.8,2.5,3.4,2.6c-1.3,1-2.9,1.6-4.6,1.6c-0.3,0-0.6,0-0.9-0.1
	C1.6,15.7,3.6,16.3,5.7,16.3"/>
</svg>
