<?xml version="1.0" encoding="utf-8"?>
<!-- Generator: Adobe Illustrator 19.2.1, SVG Export Plug-In . SVG Version: 6.00 Build 0)  -->
<svg version="1.1" id="Layer_1" xmlns="http://www.w3.org/2000/svg" xmlns:xlink="http://www.w3.org/1999/xlink" x="0px" y="0px"
	 viewBox="0 0 18 18" style="enable-background:new 0 0 18 18;" xml:space="preserve">
<style type="text/css">
	.st0{fill:#FFFFFF;}
</style>
<g>
	<path class="st0" d="M0.6,4.3c0.5,0.3,7.2,3.9,7.5,4C8.3,8.4,8.7,8.5,9,8.5s0.7-0.1,0.9-0.2c0.3-0.1,7-3.8,7.5-4
		c0.5-0.3,1-1.1,0.1-1.1H0.5C-0.4,3.2,0.1,4,0.6,4.3z M17.6,6.3c-0.6,0.3-7.4,3.9-7.7,4c-0.3,0.2-0.6,0.2-0.9,0.2s-0.6,0-0.9-0.2
		c-0.3-0.2-7.2-3.7-7.7-4C0,6.1,0,6.3,0,6.5s0,7.3,0,7.3c0,0.4,0.6,1,1,1h16c0.4,0,1-0.5,1-1c0,0,0-7.2,0-7.3S18,6.1,17.6,6.3z"/>
</g>
</svg>
