<?xml version="1.0" encoding="utf-8"?>
<!-- Generator: Adobe Illustrator 19.2.1, SVG Export Plug-In . SVG Version: 6.00 Build 0)  -->
<svg version="1.1" id="Layer_1" xmlns="http://www.w3.org/2000/svg" xmlns:xlink="http://www.w3.org/1999/xlink" x="0px" y="0px"
	 viewBox="0 0 194 52" style="enable-background:new 0 0 194 52;" xml:space="preserve">
<style type="text/css">
	.st0{fill:#FFFFFF;}
</style>
<path class="st0" d="M54.9,13l5.3-6.9h5.4L59,14l7.2,8.8h-5.6L55,15.6v7.2h-4.3V6.1H55V13H54.9z"/>
<path class="st0" d="M87.3,14.8l-6.1-8.7h5.2l3.1,4.6l3.1-4.6h5.2l-6.1,8.7v8h-4.3L87.3,14.8L87.3,14.8z"/>
<path class="st0" d="M108.1,10.4c-0.5-0.4-0.9-0.7-1.4-0.9s-0.9-0.3-1.4-0.3c-0.6,0-1,0.1-1.4,0.4c-0.4,0.3-0.5,0.6-0.5,1
	c0,0.3,0.1,0.5,0.3,0.7c0.2,0.2,0.4,0.4,0.7,0.5c0.3,0.1,0.6,0.3,1,0.4c0.4,0.1,0.7,0.2,1.1,0.3c1.4,0.5,2.5,1.1,3.1,1.9
	c0.7,0.8,1,1.8,1,3.1c0,0.9-0.1,1.6-0.4,2.3s-0.7,1.3-1.3,1.8c-0.6,0.5-1.2,0.9-2,1.2s-1.7,0.4-2.7,0.4c-2.1,0-4.1-0.6-5.9-1.9
	l1.9-3.5c0.6,0.6,1.3,1,1.9,1.3s1.3,0.4,1.9,0.4c0.7,0,1.2-0.2,1.6-0.5c0.3-0.3,0.5-0.7,0.5-1.1c0-0.3,0-0.5-0.1-0.7
	s-0.2-0.4-0.4-0.5c-0.2-0.2-0.5-0.3-0.8-0.4c-0.3-0.1-0.7-0.3-1.2-0.4c-0.6-0.2-1.1-0.4-1.6-0.6c-0.5-0.2-1-0.5-1.4-0.9
	s-0.8-0.8-1-1.3c-0.3-0.5-0.4-1.2-0.4-2s0.1-1.6,0.4-2.2c0.3-0.7,0.7-1.2,1.2-1.7s1.1-0.9,1.8-1.1c0.7-0.3,1.5-0.4,2.4-0.4
	c0.8,0,1.7,0.1,2.6,0.3s1.8,0.6,2.6,1L108.1,10.4z"/>
<path class="st0" d="M120.6,9.8v13h-4.3v-13H112V6.1h12.9v3.7H120.6z"/>
<path class="st0" d="M140.8,22.8h-5.4l-4.1-6.4v6.4H127V6.1h6.8c0.9,0,1.7,0.1,2.4,0.4c0.7,0.3,1.3,0.6,1.7,1.1c0.5,0.5,0.8,1,1,1.6
	s0.3,1.3,0.3,2c0,1.3-0.3,2.3-0.9,3.1s-1.5,1.3-2.7,1.6L140.8,22.8z M131.3,13.6h0.8c0.9,0,1.5-0.2,2-0.5c0.5-0.4,0.7-0.9,0.7-1.5
	c0-0.7-0.2-1.2-0.7-1.5c-0.5-0.4-1.1-0.5-2-0.5h-0.8V13.6z"/>
<path class="st0" d="M142,14.4c0-1.2,0.2-2.4,0.7-3.5s1.1-2,1.9-2.8s1.8-1.4,2.9-1.9c1.1-0.4,2.4-0.7,3.7-0.7c1.3,0,2.6,0.2,3.7,0.7
	s2.1,1.1,2.9,1.9c0.8,0.8,1.5,1.7,1.9,2.8c0.5,1.1,0.7,2.2,0.7,3.5c0,1.2-0.2,2.4-0.7,3.5s-1.1,2-1.9,2.8s-1.8,1.4-2.9,1.9
	c-1.1,0.4-2.4,0.7-3.7,0.7c-1.4,0-2.6-0.2-3.7-0.7s-2.1-1.1-2.9-1.9c-0.8-0.8-1.4-1.7-1.9-2.8C142.3,16.8,142,15.7,142,14.4z
	 M146.6,14.4c0,0.7,0.1,1.3,0.4,1.8c0.3,0.6,0.6,1,1,1.5c0.4,0.4,0.9,0.7,1.5,1c0.6,0.2,1.2,0.3,1.8,0.3c0.6,0,1.2-0.1,1.8-0.3
	c0.6-0.2,1.1-0.5,1.5-1c0.4-0.4,0.8-0.9,1-1.5c0.3-0.6,0.4-1.2,0.4-1.8c0-0.7-0.1-1.3-0.4-1.8c-0.3-0.6-0.6-1-1-1.5
	c-0.4-0.4-0.9-0.7-1.5-1c-0.6-0.2-1.2-0.3-1.8-0.3c-0.6,0-1.2,0.1-1.8,0.3c-0.6,0.2-1.1,0.5-1.5,1c-0.4,0.4-0.8,0.9-1,1.5
	C146.7,13.2,146.6,13.8,146.6,14.4z"/>
<path class="st0" d="M168,13l5.3-6.9h5.4l-6.6,7.9l7.2,8.8h-5.6l-5.6-7.2v7.2h-4.3V6.1h4.3V13H168z"/>
<path class="st0" d="M192.9,9.8H186v2.8h6.6v3.7H186v2.9h6.9v3.7h-11.2V6.2h11.2V9.8z"/>
<path class="st0" d="M79.7,9.8h-6.9v2.8h6.6v3.7h-6.6v2.9h6.9v3.7H68.5V6.2h11.2V9.8z"/>
<path class="st0" d="M50.5,30h6.4c1.1,0,2.2,0.2,3.2,0.7s1.9,1.1,2.6,1.8c0.7,0.8,1.3,1.6,1.8,2.7c0.4,1,0.6,2.1,0.6,3.2
	c0,1.1-0.2,2.1-0.6,3.2c-0.4,1-1,1.9-1.7,2.7s-1.6,1.4-2.6,1.8c-1,0.5-2.1,0.7-3.2,0.7h-6.4V30H50.5z M54.9,43.1h1
	c0.8,0,1.4-0.1,2-0.4c0.6-0.2,1.1-0.6,1.5-1s0.7-0.9,0.9-1.5c0.2-0.6,0.3-1.2,0.3-1.9s-0.1-1.3-0.3-1.9c-0.2-0.6-0.5-1.1-0.9-1.5
	s-0.9-0.7-1.5-1c-0.6-0.2-1.3-0.4-2-0.4h-1V43.1z"/>
<path class="st0" d="M68.4,46.7V30h4.3l8,10.2V30H85v16.7h-4.3l-8-10.2v10.2H68.4z"/>
<path class="st0" d="M99.3,43.8h-6.2l-1,2.9h-4.6L93.9,30h4.7l6.4,16.7h-4.6L99.3,43.8z M98.1,40.5l-1.9-5.6l-1.9,5.6H98.1z"/>
<g>
	<g>
		<polygon class="st0" points="7.6,7.6 26,26 20.9,31.1 27,37.2 38.3,26 13.7,1.5 		"/>
		
			<rect x="9.6" y="40.6" transform="matrix(0.7071 -0.7071 0.7071 0.7071 -27.9124 22.5231)" class="st0" width="7.2" height="8.7"/>
	</g>
	<g>
		<polygon class="st0" points="1.5,26 26,50.5 32.1,44.4 13.7,26 18.8,20.9 12.7,14.8 		"/>
		<rect x="22.9" y="2.8" transform="matrix(0.7071 -0.7071 0.7071 0.7071 2.717 20.8436)" class="st0" width="7.2" height="8.7"/>
	</g>
</g>
</svg>
