<?xml version="1.0" encoding="utf-8"?>
<!-- Generator: Adobe Illustrator 19.2.1, SVG Export Plug-In . SVG Version: 6.00 Build 0)  -->
<svg version="1.1" id="Layer_1" xmlns="http://www.w3.org/2000/svg" xmlns:xlink="http://www.w3.org/1999/xlink" x="0px" y="0px"
	 viewBox="0 0 256 256" style="enable-background:new 0 0 256 256;" xml:space="preserve">
<style type="text/css">
	.st0{fill:#FFFFFF;}
	.st1{fill:#212A33;}
	.st2{fill:#EC1F27;}
	.st3{fill:#4D555C;}
</style>
<g>
	<g>
		<g>
			<path class="st0" d="M28,170c-2.8,0-5-2.2-5-5V85c0-2.8,2.2-5,5-5h200c2.8,0,5,2.2,5,5v80c0,2.8-2.2,5-5,5H28z"/>
			<g>
				<path class="st1" d="M228,83c1.1,0,2,0.9,2,2v80c0,1.1-0.9,2-2,2H28c-1.1,0-2-0.9-2-2V85c0-1.1,0.9-2,2-2H228 M228,77H28
					c-4.4,0-8,3.6-8,8v80c0,4.4,3.6,8,8,8h200c4.4,0,8-3.6,8-8V85C236,80.6,232.4,77,228,77L228,77z"/>
			</g>
		</g>
		<g>
			<path class="st1" d="M150,128h-44c-1.1,0-2-0.9-2-2v-2c0-1.1,0.9-2,2-2h44c1.1,0,2,0.9,2,2v2C152,127.1,151.1,128,150,128z"/>
			<path class="st1" d="M131,103v44c0,1.1-0.9,2-2,2h-2c-1.1,0-2-0.9-2-2v-44c0-1.1,0.9-2,2-2h2C130.1,101,131,101.9,131,103z"/>
			<path class="st1" d="M145.7,111.6l-31.1,31.1c-0.8,0.8-2,0.8-2.8,0l-1.4-1.4c-0.8-0.8-0.8-2,0-2.8l31.1-31.1c0.8-0.8,2-0.8,2.8,0
				l1.4,1.4C146.5,109.5,146.5,110.8,145.7,111.6z"/>
			<path class="st1" d="M114.6,107.3l31.1,31.1c0.8,0.8,0.8,2,0,2.8l-1.4,1.4c-0.8,0.8-2,0.8-2.8,0l-31.1-31.1c-0.8-0.8-0.8-2,0-2.8
				l1.4-1.4C112.5,106.5,113.8,106.5,114.6,107.3z"/>
		</g>
		<g>
			<path class="st1" d="M210,128h-44c-1.1,0-2-0.9-2-2v-2c0-1.1,0.9-2,2-2h44c1.1,0,2,0.9,2,2v2C212,127.1,211.1,128,210,128z"/>
			<path class="st1" d="M191,103v44c0,1.1-0.9,2-2,2h-2c-1.1,0-2-0.9-2-2v-44c0-1.1,0.9-2,2-2h2C190.1,101,191,101.9,191,103z"/>
			<path class="st1" d="M205.7,111.6l-31.1,31.1c-0.8,0.8-2,0.8-2.8,0l-1.4-1.4c-0.8-0.8-0.8-2,0-2.8l31.1-31.1c0.8-0.8,2-0.8,2.8,0
				l1.4,1.4C206.5,109.5,206.5,110.8,205.7,111.6z"/>
			<path class="st1" d="M174.6,107.3l31.1,31.1c0.8,0.8,0.8,2,0,2.8l-1.4,1.4c-0.8,0.8-2,0.8-2.8,0l-31.1-31.1c-0.8-0.8-0.8-2,0-2.8
				l1.4-1.4C172.5,106.5,173.8,106.5,174.6,107.3z"/>
		</g>
		<g>
			<path class="st1" d="M90,128H46c-1.1,0-2-0.9-2-2v-2c0-1.1,0.9-2,2-2h44c1.1,0,2,0.9,2,2v2C92,127.1,91.1,128,90,128z"/>
			<path class="st1" d="M71,103v44c0,1.1-0.9,2-2,2h-2c-1.1,0-2-0.9-2-2v-44c0-1.1,0.9-2,2-2h2C70.1,101,71,101.9,71,103z"/>
			<path class="st1" d="M85.7,111.6l-31.1,31.1c-0.8,0.8-2,0.8-2.8,0l-1.4-1.4c-0.8-0.8-0.8-2,0-2.8l31.1-31.1c0.8-0.8,2-0.8,2.8,0
				l1.4,1.4C86.5,109.5,86.5,110.8,85.7,111.6z"/>
			<path class="st1" d="M54.6,107.3l31.1,31.1c0.8,0.8,0.8,2,0,2.8l-1.4,1.4c-0.8,0.8-2,0.8-2.8,0l-31.1-31.1c-0.8-0.8-0.8-2,0-2.8
				l1.4-1.4C52.5,106.5,53.8,106.5,54.6,107.3z"/>
		</g>
	</g>
	<g>
		<path class="st2" d="M192,253c-33.6,0-61-27.4-61-61s27.4-61,61-61s61,27.4,61,61S225.6,253,192,253z"/>
		<g>
			<path class="st1" d="M192,134c32,0,58,26,58,58s-26,58-58,58s-58-26-58-58S160,134,192,134 M192,128c-35.3,0-64,28.7-64,64
				s28.7,64,64,64s64-28.7,64-64S227.3,128,192,128L192,128z"/>
		</g>
	</g>
	<g>
		<path class="st0" d="M192,218.9c-5.9,0-23-9.4-23-23.9v-21.8l23-7.9l23,7.9V195C215,209.5,197.9,218.9,192,218.9z"/>
		<g>
			<path class="st1" d="M192,168.5l20,6.9V195c0,13-15.9,20.8-20,20.8s-20-7.8-20-20.8v-19.6L192,168.5 M192,162l-26,9
				c0,0,0,5.8,0,24c0,16.8,18.9,26.9,26,26.9s26-10.1,26-26.9c0-18.2,0-24,0-24L192,162L192,162z"/>
		</g>
	</g>
</g>
</svg>
