<?xml version="1.0" encoding="utf-8"?>
<!-- Generator: Adobe Illustrator 19.2.1, SVG Export Plug-In . SVG Version: 6.00 Build 0)  -->
<svg version="1.1" id="Layer_1" xmlns="http://www.w3.org/2000/svg" xmlns:xlink="http://www.w3.org/1999/xlink" x="0px" y="0px"
	 viewBox="0 0 256 256" style="enable-background:new 0 0 256 256;" xml:space="preserve">
<style type="text/css">
	.st0{fill:#FFFFFF;}
	.st1{fill:#212A33;}
	.st2{fill:#EC1F27;}
	.st3{fill:#4D555C;}
</style>
<g>
	<g>
		<g>
			<path class="st2" d="M164,203c-11.6,0-21-9.4-21-21v-68c0-11.6,9.4-21,21-21h68c11.6,0,21,9.4,21,21v68c0,11.6-9.4,21-21,21H164z
				"/>
			<path class="st1" d="M232,96c9.9,0,18,8.1,18,18v68c0,9.9-8.1,18-18,18h-68c-9.9,0-18-8.1-18-18v-68c0-9.9,8.1-18,18-18H232
				 M232,90h-68c-13.3,0-24,10.7-24,24v68c0,13.3,10.7,24,24,24h68c13.3,0,24-10.7,24-24v-68C256,100.7,245.3,90,232,90L232,90z"/>
		</g>
		<g>
			<path class="st1" d="M206,151h-16v17h-8.4v-40h8.4v15.7h16V128h8.4v40H206V151z"/>
		</g>
	</g>
	<g>
		<g>
			<path class="st0" d="M24,183c-11.6,0-21-9.4-21-21V94c0-11.6,9.4-21,21-21h68c11.6,0,21,9.4,21,21v68c0,11.6-9.4,21-21,21H24z"/>
			<path class="st1" d="M92,76c9.9,0,18,8.1,18,18v68c0,9.9-8.1,18-18,18H24c-9.9,0-18-8.1-18-18V94c0-9.9,8.1-18,18-18H92 M92,70
				H24C10.7,70,0,80.7,0,94v68c0,13.3,10.7,24,24,24h68c13.3,0,24-10.7,24-24V94C116,80.7,105.3,70,92,70L92,70z"/>
		</g>
		<g>
			<path class="st1" d="M53.7,108c14.4,0,22,9.1,22,20c0,10.9-8,20-22.1,20H40v-40H53.7z M53.4,140.6c9.4,0,13.7-5.7,13.7-12.6
				c0-7.4-4.6-12.6-13.7-12.6h-5v25.2H53.4z"/>
		</g>
	</g>
	<path class="st1" d="M203.8,71.5L203,47.6l-7.6,4.8C179,32.1,154.6,20.5,128,20.5c-25.8,0-48.9,10.3-64.9,29.1
		c-1.1,1.3-0.9,3.2,0.3,4.2c1.3,1.1,3.2,0.9,4.2-0.3C82.5,36.1,104,26.5,128,26.5c24.5,0,47,10.5,62.2,29l-7.5,4.7L203.8,71.5z"/>
</g>
</svg>
