<?xml version="1.0" encoding="utf-8"?>
<!-- Generator: Adobe Illustrator 19.2.1, SVG Export Plug-In . SVG Version: 6.00 Build 0)  -->
<svg version="1.1" id="Layer_1" xmlns="http://www.w3.org/2000/svg" xmlns:xlink="http://www.w3.org/1999/xlink" x="0px" y="0px"
	 viewBox="0 0 256 256" style="enable-background:new 0 0 256 256;" xml:space="preserve">
<style type="text/css">
	.st0{fill:#FFFFFF;}
	.st1{fill:#212A33;}
	.st2{fill:#EC1F27;}
	.st3{fill:#4D555C;}
</style>
<g>
	<g>
		<path class="st1" d="M178,222c-2.2,0-4-1.8-4-4c0-19.4,0.6-35.4,1.1-50.8c0.5-13.3,0.9-25.9,0.9-39.2c0-26.5-21.5-48-48-48
			s-48,21.5-48,48c0,12.8,1.3,22.4,2.9,33.5c1.9,14.1,4.1,30,4.1,56.5c0,2.2-1.8,4-4,4s-4-1.8-4-4c0-25.9-2.2-41.6-4.1-55.4
			C73.4,151.6,72,141.3,72,128c0-30.9,25.1-56,56-56s56,25.1,56,56c0,13.4-0.4,26.1-0.9,39.5c-0.5,15.3-1.1,31.2-1.1,50.5
			C182,220.2,180.2,222,178,222z"/>
	</g>
	<g>
		<path class="st1" d="M154,230c-2.2,0-4-1.8-4-4v-29c0-2.2,1.8-4,4-4s4,1.8,4,4v29C158,228.2,156.2,230,154,230z"/>
	</g>
	<g>
		<path class="st1" d="M109,230c-2.2,0-4-1.8-4-4c0-18.4-2-37.1-3.8-55.1C99.5,155.3,98,140.6,98,128c0-16.5,13.5-30,30-30
			s30,13.5,30,30v43c0,2.2-1.8,4-4,4s-4-1.8-4-4v-43c0-12.1-9.9-22-22-22s-22,9.9-22,22c0,12.1,1.5,26.7,3.1,42
			c1.9,18.3,3.9,37.2,3.9,56C113,228.2,111.2,230,109,230z"/>
	</g>
	<g>
		<path class="st1" d="M232,152c-2.2,0-4-1.8-4-4v-20c0-55.1-44.9-100-100-100c-25.3,0-49.4,9.5-67.9,26.6c-1.6,1.5-4.2,1.4-5.7-0.2
			c-1.5-1.6-1.4-4.2,0.2-5.7C74.6,30.2,100.7,20,128,20c59.6,0,108,48.4,108,108v20C236,150.2,234.2,152,232,152z"/>
	</g>
	<g>
		<path class="st1" d="M30.5,168.1c-1.6,0-3.2-1-3.8-2.6c-4.4-12-6.7-24.6-6.7-37.5c0-23.4,7.3-45.6,21.2-64.3
			c1.3-1.8,3.8-2.1,5.6-0.8c1.8,1.3,2.1,3.8,0.8,5.6C34.8,85.8,28,106.4,28,128c0,11.9,2.1,23.6,6.2,34.7c0.8,2.1-0.3,4.4-2.4,5.1
			C31.4,168,30.9,168.1,30.5,168.1z"/>
	</g>
	<g>
		<path class="st1" d="M202,211c-2.2,0-4-1.8-4-4c0-15.6,0.9-24.6,1.8-34.1c1.1-10.9,2.2-22.2,2.2-44.9c0-40.8-33.2-74-74-74
			c-5.4,0-10.9,0.6-16.1,1.8c-2.2,0.5-4.3-0.9-4.8-3c-0.5-2.2,0.9-4.3,3-4.8c5.8-1.3,11.8-2,17.9-2c45.2,0,82,36.8,82,82
			c0,23.1-1.1,34.6-2.2,45.7c-0.9,9.3-1.8,18.1-1.8,33.3C206,209.2,204.2,211,202,211z"/>
	</g>
	<g>
		<path class="st1" d="M57,211c-2.2,0-4-1.8-4-4c0-26.9-2.1-38.5-4-48.8c-1.5-8.3-3-16.1-3-30.2c0-32,18.8-61.3,48-74.6
			c2-0.9,4.4,0,5.3,2c0.9,2,0,4.4-2,5.3C71,72.6,54,99.1,54,128c0,13.4,1.3,20.5,2.8,28.8c2,10.6,4.2,22.6,4.2,50.2
			C61,209.2,59.2,211,57,211z"/>
	</g>
	<g>
		<path class="st1" d="M132,236c-2.2,0-4-1.8-4-4c0-60.6-3.9-103.2-4-103.6c-0.2-2.2,1.4-4.1,3.6-4.4c2.2-0.2,4.1,1.4,4.4,3.6
			c0,0.4,4,43.4,4,104.4C136,234.2,134.2,236,132,236z"/>
	</g>
	<g>
		<g>
			<path class="st0" d="M192,252c-33.1,0-60-26.9-60-60s26.9-60,60-60s60,26.9,60,60S225.1,252,192,252z"/>
			<path class="st1" d="M192,136c30.9,0,56,25.1,56,56s-25.1,56-56,56s-56-25.1-56-56S161.1,136,192,136 M192,128
				c-35.3,0-64,28.7-64,64s28.7,64,64,64s64-28.7,64-64S227.3,128,192,128L192,128z"/>
		</g>
		<g>
			<path class="st2" d="M207.6,213.2l-36.8-36.8c-0.8-0.8-0.8-2,0-2.8l2.8-2.8c0.8-0.8,2-0.8,2.8,0l36.8,36.8c0.8,0.8,0.8,2,0,2.8
				l-2.8,2.8C209.6,214,208.3,214,207.6,213.2z"/>
			<path class="st2" d="M213.2,176.4l-36.8,36.8c-0.8,0.8-2,0.8-2.8,0l-2.8-2.8c-0.8-0.8-0.8-2,0-2.8l36.8-36.8c0.8-0.8,2-0.8,2.8,0
				l2.8,2.8C214,174.4,214,175.7,213.2,176.4z"/>
		</g>
	</g>
</g>
</svg>
