<?xml version="1.0" encoding="utf-8"?>
<!-- Generator: Adobe Illustrator 19.2.1, SVG Export Plug-In . SVG Version: 6.00 Build 0)  -->
<svg version="1.1" id="Layer_1" xmlns="http://www.w3.org/2000/svg" xmlns:xlink="http://www.w3.org/1999/xlink" x="0px" y="0px"
	 viewBox="0 0 256 256" style="enable-background:new 0 0 256 256;" xml:space="preserve">
<style type="text/css">
	.st0{fill:#FFFFFF;}
	.st1{fill:#212A33;}
	.st2{fill:#EC1F27;}
	.st3{fill:#4D555C;}
</style>
<g>
	<g>
		<g>
			<path class="st0" d="M36,217c-7.2,0-13-5.8-13-13V52c0-7.2,5.8-13,13-13h184c7.2,0,13,5.8,13,13v152c0,7.2-5.8,13-13,13H36z"/>
			<g>
				<path class="st1" d="M220,42c5.5,0,10,4.5,10,10v152c0,5.5-4.5,10-10,10H36c-5.5,0-10-4.5-10-10V52c0-5.5,4.5-10,10-10H220
					 M220,36H36c-8.8,0-16,7.2-16,16v152c0,8.8,7.2,16,16,16h184c8.8,0,16-7.2,16-16V52C236,43.2,228.8,36,220,36L220,36z"/>
			</g>
		</g>
		<circle class="st1" cx="39" cy="55" r="5"/>
		<circle class="st1" cx="57" cy="55" r="5"/>
		<circle class="st1" cx="75" cy="55" r="5"/>
		<path class="st1" d="M218,59H92c-2.2,0-4-1.8-4-4v0c0-2.2,1.8-4,4-4h126c2.2,0,4,1.8,4,4v0C222,57.2,220.2,59,218,59z"/>
		<rect x="26" y="68" class="st1" width="204" height="3"/>
	</g>
	<g>
		<g>
			<path class="st2" d="M192,252c-33.1,0-60-26.9-60-60s26.9-60,60-60s60,26.9,60,60S225.1,252,192,252z"/>
			<g>
				<path class="st0" d="M251.4,200.1c-2.8-1.4-5.8-2.5-8.8-3.2l-0.6-11.1c-0.1-1.6-1.4-2.8-3-2.8h-10c-1.6,0-2.9,1.2-3,2.8
					l-0.6,11.1c-4.3,1-8.4,2.7-12.2,5.1l-8.3-7.4c-0.6-0.5-1.3-0.8-2-0.8c-0.8,0-1.5,0.3-2.1,0.9l-7.1,7.1c-1.1,1.1-1.2,2.9-0.1,4.1
					l7.4,8.3c-2.4,3.7-4.1,7.9-5.1,12.2l-11.1,0.6c-1.6,0.1-2.8,1.4-2.8,3v10c0,1.6,1.2,2.9,2.8,3l11.1,0.6c0.6,2.8,1.6,5.4,2.8,8
					c6.8-0.8,13.3-2.7,19.3-5.5c-2.2-3.1-3.5-7-3.5-11.1c0-10.8,8.7-19.5,19.5-19.5c4.3,0,8.2,1.4,11.4,3.7
					C248.4,213.4,250.5,206.9,251.4,200.1z"/>
				<path class="st1" d="M245.5,194.6l-0.5-8.9c-0.2-3.2-2.8-5.7-6-5.7h-10c-3.2,0-5.8,2.5-6,5.7l-0.5,8.9c-3.1,0.9-6.1,2.1-9,3.7
					l-6.7-6c-1.1-1-2.6-1.5-4-1.5c-1.5,0-3.1,0.6-4.2,1.8l-7.1,7.1c-2.3,2.3-2.4,5.9-0.2,8.2l6,6.7c-1.6,2.8-2.8,5.8-3.7,9l-8.9,0.5
					c-3.2,0.2-5.7,2.8-5.7,6v10c0,3.2,2.5,5.8,5.7,6l8.9,0.5c0.5,1.8,1.2,3.6,2,5.4c2.1-0.1,4.2-0.4,6.3-0.7
					c-1.6-3.2-2.8-6.7-3.4-10.4L185,240v-10l13.5-0.7c0.9-5.7,3.1-10.9,6.3-15.3l-9-10.1l7.1-7.1l10.1,9c4.4-3.2,9.7-5.4,15.3-6.3
					L229,186h10l0.7,13.5c4,0.6,7.7,1.9,11.2,3.8c0.4-2.1,0.7-4.2,0.9-6.3C249.7,196,247.6,195.2,245.5,194.6z"/>
				<path class="st1" d="M246.1,217.9c-3.4-2.4-7.6-3.9-12.1-3.9c-11.6,0-21,9.4-21,21c0,4.3,1.3,8.4,3.6,11.7
					c0.9-0.4,1.8-0.9,2.7-1.3c-2.1-2.9-3.3-6.5-3.3-10.4c0-9.9,8.1-18,18-18c4,0,7.7,1.3,10.7,3.6
					C245.2,219.7,245.7,218.8,246.1,217.9z"/>
			</g>
			<g>
				<path class="st0" d="M132.6,183.9c2.8,1.4,5.8,2.5,8.8,3.2l0.6,11.1c0.1,1.6,1.4,2.8,3,2.8h10c1.6,0,2.9-1.2,3-2.8l0.6-11.1
					c4.3-1,8.4-2.7,12.2-5.1l8.3,7.4c0.6,0.5,1.3,0.8,2,0.8c0.8,0,1.5-0.3,2.1-0.9l7.1-7.1c1.1-1.1,1.2-2.9,0.1-4.1l-7.4-8.3
					c2.4-3.7,4.1-7.9,5.1-12.2l11.1-0.6c1.6-0.1,2.8-1.4,2.8-3v-10c0-1.6-1.2-2.9-2.8-3l-11.1-0.6c-0.6-2.8-1.6-5.4-2.8-8
					c-6.8,0.8-13.3,2.7-19.3,5.5c2.2,3.1,3.5,7,3.5,11.1c0,10.8-8.7,19.5-19.5,19.5c-4.3,0-8.2-1.4-11.4-3.7
					C135.6,170.6,133.5,177.1,132.6,183.9z"/>
				<path class="st1" d="M138.5,189.4l0.5,8.9c0.2,3.2,2.8,5.7,6,5.7h10c3.2,0,5.8-2.5,6-5.7l0.5-8.9c3.1-0.9,6.1-2.1,9-3.7l6.7,6
					c1.1,1,2.6,1.5,4,1.5c1.5,0,3.1-0.6,4.2-1.8l7.1-7.1c2.3-2.3,2.4-5.9,0.2-8.2l-6-6.7c1.6-2.8,2.8-5.8,3.7-9l8.9-0.5
					c3.2-0.2,5.7-2.8,5.7-6v-10c0-3.2-2.5-5.8-5.7-6l-8.9-0.5c-0.5-1.8-1.2-3.6-2-5.4c-2.1,0.1-4.2,0.4-6.3,0.7
					c1.6,3.2,2.8,6.7,3.4,10.4L199,144v10l-13.5,0.7c-0.9,5.7-3.1,10.9-6.3,15.3l9,10.1l-7.1,7.1l-10.1-9c-4.4,3.2-9.7,5.4-15.3,6.3
					L155,198h-10l-0.7-13.5c-4-0.6-7.7-1.9-11.2-3.8c-0.4,2.1-0.7,4.2-0.9,6.3C134.3,188,136.4,188.8,138.5,189.4z"/>
				<path class="st1" d="M137.9,166.1c3.4,2.4,7.6,3.9,12.1,3.9c11.6,0,21-9.4,21-21c0-4.3-1.3-8.4-3.6-11.7
					c-0.9,0.4-1.8,0.9-2.7,1.3c2.1,2.9,3.3,6.5,3.3,10.4c0,9.9-8.1,18-18,18c-4,0-7.7-1.3-10.7-3.6
					C138.8,164.3,138.3,165.2,137.9,166.1z"/>
			</g>
		</g>
		<g>
			<path class="st1" d="M192,134c32,0,58,26,58,58s-26,58-58,58s-58-26-58-58S160,134,192,134 M192,128c-35.3,0-64,28.7-64,64
				s28.7,64,64,64s64-28.7,64-64S227.3,128,192,128L192,128z"/>
		</g>
	</g>
</g>
</svg>
