<?xml version="1.0" encoding="utf-8"?>
<!-- Generator: Adobe Illustrator 19.2.1, SVG Export Plug-In . SVG Version: 6.00 Build 0)  -->
<svg version="1.1" id="Layer_1" xmlns="http://www.w3.org/2000/svg" xmlns:xlink="http://www.w3.org/1999/xlink" x="0px" y="0px"
	 viewBox="0 0 256 256" style="enable-background:new 0 0 256 256;" xml:space="preserve">
<style type="text/css">
	.st0{fill:#FFFFFF;}
	.st1{fill:#212A33;}
	.st2{fill:#EC1F27;}
	.st3{fill:#4D555C;}
</style>
<g>
	<g>
		<g>
			<path class="st0" d="M26,233c-7.2,0-13-5.8-13-13V36c0-7.2,5.8-13,13-13h132c7.2,0,13,5.8,13,13v184c0,7.2-5.8,13-13,13H26z"/>
			<g>
				<path class="st1" d="M158,26c5.5,0,10,4.5,10,10v184c0,5.5-4.5,10-10,10H26c-5.5,0-10-4.5-10-10V36c0-5.5,4.5-10,10-10H158
					 M158,20H26c-8.8,0-16,7.2-16,16v184c0,8.8,7.2,16,16,16h132c8.8,0,16-7.2,16-16V36C174,27.2,166.8,20,158,20L158,20z"/>
			</g>
		</g>
		<g>
			<path class="st2" d="M26,202.5c-0.3,0-0.5-0.2-0.5-0.5V54c0-0.3,0.2-0.5,0.5-0.5h132c0.3,0,0.5,0.2,0.5,0.5v148
				c0,0.3-0.2,0.5-0.5,0.5H26z"/>
			<path class="st1" d="M157,55v146H27V55H157 M158,52H26c-1.1,0-2,0.9-2,2v148c0,1.1,0.9,2,2,2h132c1.1,0,2-0.9,2-2V54
				C160,52.9,159.1,52,158,52L158,52z"/>
		</g>
		<path class="st1" d="M92,211c3.3,0,6,2.7,6,6s-2.7,6-6,6s-6-2.7-6-6S88.7,211,92,211 M92,208c-5,0-9,4-9,9s4,9,9,9s9-4,9-9
			S97,208,92,208L92,208z"/>
		<path class="st1" d="M106,41H78c-1.1,0-2-0.9-2-2v0c0-1.1,0.9-2,2-2h28c1.1,0,2,0.9,2,2v0C108,40.1,107.1,41,106,41z"/>
	</g>
	<g>
		<g>
			<path class="st0" d="M56,186c-7.2,0-13-5.8-13-13V93c0-7.2,5.8-13,13-13h184c7.2,0,13,5.8,13,13v80c0,7.2-5.8,13-13,13H56z"/>
			<path class="st1" d="M240,83c5.5,0,10,4.5,10,10v80c0,5.5-4.5,10-10,10H56c-5.5,0-10-4.5-10-10V93c0-5.5,4.5-10,10-10H240
				 M240,77H56c-8.8,0-16,7.2-16,16v80c0,8.8,7.2,16,16,16h184c8.8,0,16-7.2,16-16V93C256,84.2,248.8,77,240,77L240,77z"/>
		</g>
		<g>
			<path class="st1" d="M75,96v14H61V96H75 M76,93H60c-1.1,0-2,0.9-2,2v16c0,1.1,0.9,2,2,2h16c1.1,0,2-0.9,2-2V95
				C78,93.9,77.1,93,76,93L76,93z"/>
			<g>
				<path class="st2" d="M92,111.5c-0.3,0-0.5-0.2-0.5-0.5V95c0-0.3,0.2-0.5,0.5-0.5h16c0.3,0,0.5,0.2,0.5,0.5v16
					c0,0.3-0.2,0.5-0.5,0.5H92z"/>
				<path class="st1" d="M107,96v14H93V96H107 M108,93H92c-1.1,0-2,0.9-2,2v16c0,1.1,0.9,2,2,2h16c1.1,0,2-0.9,2-2V95
					C110,93.9,109.1,93,108,93L108,93z"/>
			</g>
			<path class="st1" d="M139,96v14h-14V96H139 M140,93h-16c-1.1,0-2,0.9-2,2v16c0,1.1,0.9,2,2,2h16c1.1,0,2-0.9,2-2V95
				C142,93.9,141.1,93,140,93L140,93z"/>
			<g>
				<path class="st2" d="M156,111.5c-0.3,0-0.5-0.2-0.5-0.5V95c0-0.3,0.2-0.5,0.5-0.5h16c0.3,0,0.5,0.2,0.5,0.5v16
					c0,0.3-0.2,0.5-0.5,0.5H156z"/>
				<path class="st1" d="M171,96v14h-14V96H171 M172,93h-16c-1.1,0-2,0.9-2,2v16c0,1.1,0.9,2,2,2h16c1.1,0,2-0.9,2-2V95
					C174,93.9,173.1,93,172,93L172,93z"/>
			</g>
			<path class="st1" d="M203,96v14h-14V96H203 M204,93h-16c-1.1,0-2,0.9-2,2v16c0,1.1,0.9,2,2,2h16c1.1,0,2-0.9,2-2V95
				C206,93.9,205.1,93,204,93L204,93z"/>
			<path class="st1" d="M235,96v14h-14V96H235 M236,93h-16c-1.1,0-2,0.9-2,2v16c0,1.1,0.9,2,2,2h16c1.1,0,2-0.9,2-2V95
				C238,93.9,237.1,93,236,93L236,93z"/>
			<g>
				<path class="st2" d="M60,141.5c-0.3,0-0.5-0.2-0.5-0.5v-16c0-0.3,0.2-0.5,0.5-0.5h16c0.3,0,0.5,0.2,0.5,0.5v16
					c0,0.3-0.2,0.5-0.5,0.5H60z"/>
				<g>
					<path class="st1" d="M75,126v14H61v-14H75 M76,123H60c-1.1,0-2,0.9-2,2v16c0,1.1,0.9,2,2,2h16c1.1,0,2-0.9,2-2v-16
						C78,123.9,77.1,123,76,123L76,123z"/>
				</g>
			</g>
			<g>
				<path class="st2" d="M92,141.5c-0.3,0-0.5-0.2-0.5-0.5v-16c0-0.3,0.2-0.5,0.5-0.5h16c0.3,0,0.5,0.2,0.5,0.5v16
					c0,0.3-0.2,0.5-0.5,0.5H92z"/>
				<path class="st1" d="M107,126v14H93v-14H107 M108,123H92c-1.1,0-2,0.9-2,2v16c0,1.1,0.9,2,2,2h16c1.1,0,2-0.9,2-2v-16
					C110,123.9,109.1,123,108,123L108,123z"/>
			</g>
			<g>
				<path class="st2" d="M124,141.5c-0.3,0-0.5-0.2-0.5-0.5v-16c0-0.3,0.2-0.5,0.5-0.5h16c0.3,0,0.5,0.2,0.5,0.5v16
					c0,0.3-0.2,0.5-0.5,0.5H124z"/>
				<path class="st1" d="M139,126v14h-14v-14H139 M140,123h-16c-1.1,0-2,0.9-2,2v16c0,1.1,0.9,2,2,2h16c1.1,0,2-0.9,2-2v-16
					C142,123.9,141.1,123,140,123L140,123z"/>
			</g>
			<path class="st1" d="M171,126v14h-14v-14H171 M172,123h-16c-1.1,0-2,0.9-2,2v16c0,1.1,0.9,2,2,2h16c1.1,0,2-0.9,2-2v-16
				C174,123.9,173.1,123,172,123L172,123z"/>
			<g>
				<path class="st2" d="M188,141.5c-0.3,0-0.5-0.2-0.5-0.5v-16c0-0.3,0.2-0.5,0.5-0.5h16c0.3,0,0.5,0.2,0.5,0.5v16
					c0,0.3-0.2,0.5-0.5,0.5H188z"/>
				<path class="st1" d="M203,126v14h-14v-14H203 M204,123h-16c-1.1,0-2,0.9-2,2v16c0,1.1,0.9,2,2,2h16c1.1,0,2-0.9,2-2v-16
					C206,123.9,205.1,123,204,123L204,123z"/>
			</g>
			<path class="st1" d="M235,126v14h-14v-14H235 M236,123h-16c-1.1,0-2,0.9-2,2v16c0,1.1,0.9,2,2,2h16c1.1,0,2-0.9,2-2v-16
				C238,123.9,237.1,123,236,123L236,123z"/>
			<path class="st1" d="M75,156v14H61v-14H75 M76,153H60c-1.1,0-2,0.9-2,2v16c0,1.1,0.9,2,2,2h16c1.1,0,2-0.9,2-2v-16
				C78,153.9,77.1,153,76,153L76,153z"/>
			<g>
				<path class="st1" d="M171,156v14H93v-14H171 M172,153H92c-1.1,0-2,0.9-2,2v16c0,1.1,0.9,2,2,2h80c1.1,0,2-0.9,2-2v-16
					C174,153.9,173.1,153,172,153L172,153z"/>
			</g>
			<path class="st1" d="M203,156v14h-14v-14H203 M204,153h-16c-1.1,0-2,0.9-2,2v16c0,1.1,0.9,2,2,2h16c1.1,0,2-0.9,2-2v-16
				C206,153.9,205.1,153,204,153L204,153z"/>
			<path class="st1" d="M235,156v14h-14v-14H235 M236,153h-16c-1.1,0-2,0.9-2,2v16c0,1.1,0.9,2,2,2h16c1.1,0,2-0.9,2-2v-16
				C238,153.9,237.1,153,236,153L236,153z"/>
		</g>
	</g>
</g>
</svg>
