<?xml version="1.0" encoding="utf-8"?>
<!-- Generator: Adobe Illustrator 19.2.1, SVG Export Plug-In . SVG Version: 6.00 Build 0)  -->
<svg version="1.1" id="Layer_1" xmlns="http://www.w3.org/2000/svg" xmlns:xlink="http://www.w3.org/1999/xlink" x="0px" y="0px"
	 viewBox="0 0 256 256" style="enable-background:new 0 0 256 256;" xml:space="preserve">
<style type="text/css">
	.st0{fill:#212A33;}
	.st1{fill:#FFFFFF;}
	.st2{fill:#EC1F27;}
</style>
<g>
	<g>
		<path class="st0" d="M220,240c-2.2,0-4-1.8-4-4V52H40v184c0,2.2-1.8,4-4,4s-4-1.8-4-4V44h192v192C224,238.2,222.2,240,220,240z"/>
	</g>
	<g>
		<g>
			<g>
				<rect x="23" y="23" class="st1" width="210" height="50"/>
				<g>
					<path class="st0" d="M230,26v44H26V26H230 M234,20H22c-1.1,0-2,0.9-2,2v52c0,1.1,0.9,2,2,2h212c1.1,0,2-0.9,2-2V22
						C236,20.9,235.1,20,234,20L234,20z"/>
				</g>
			</g>
			<circle class="st0" cx="176" cy="48" r="5"/>
			<circle class="st0" cx="156" cy="48" r="5"/>
			<circle class="st0" cx="136" cy="48" r="5"/>
			<path class="st0" d="M41,58V38c0-1.1,0.9-2,2-2h4c1.1,0,2,0.9,2,2v20c0,1.1-0.9,2-2,2h-4C41.9,60,41,59.1,41,58z"/>
			<path class="st0" d="M61,58V38c0-1.1,0.9-2,2-2h4c1.1,0,2,0.9,2,2v20c0,1.1-0.9,2-2,2h-4C61.9,60,61,59.1,61,58z"/>
			<path class="st0" d="M81,58V38c0-1.1,0.9-2,2-2h4c1.1,0,2,0.9,2,2v20c0,1.1-0.9,2-2,2h-4C81.9,60,81,59.1,81,58z"/>
			<path class="st0" d="M101,58V38c0-1.1,0.9-2,2-2h4c1.1,0,2,0.9,2,2v20c0,1.1-0.9,2-2,2h-4C101.9,60,101,59.1,101,58z"/>
			<g>
				<circle class="st2" cx="206" cy="48" r="7.5"/>
				<path class="st0" d="M206,42c3.3,0,6,2.7,6,6s-2.7,6-6,6s-6-2.7-6-6S202.7,42,206,42 M206,39c-5,0-9,4-9,9s4,9,9,9s9-4,9-9
					S211,39,206,39L206,39z"/>
			</g>
		</g>
		<g>
			<g>
				<rect x="23" y="87" class="st1" width="210" height="50"/>
				<g>
					<path class="st0" d="M230,90v44H26V90H230 M234,84H22c-1.1,0-2,0.9-2,2v52c0,1.1,0.9,2,2,2h212c1.1,0,2-0.9,2-2V86
						C236,84.9,235.1,84,234,84L234,84z"/>
				</g>
			</g>
			<circle class="st0" cx="176" cy="112" r="5"/>
			<circle class="st0" cx="156" cy="112" r="5"/>
			<circle class="st0" cx="136" cy="112" r="5"/>
			<path class="st0" d="M41,122v-20c0-1.1,0.9-2,2-2h4c1.1,0,2,0.9,2,2v20c0,1.1-0.9,2-2,2h-4C41.9,124,41,123.1,41,122z"/>
			<path class="st0" d="M61,122v-20c0-1.1,0.9-2,2-2h4c1.1,0,2,0.9,2,2v20c0,1.1-0.9,2-2,2h-4C61.9,124,61,123.1,61,122z"/>
			<path class="st0" d="M81,122v-20c0-1.1,0.9-2,2-2h4c1.1,0,2,0.9,2,2v20c0,1.1-0.9,2-2,2h-4C81.9,124,81,123.1,81,122z"/>
			<path class="st0" d="M101,122v-20c0-1.1,0.9-2,2-2h4c1.1,0,2,0.9,2,2v20c0,1.1-0.9,2-2,2h-4C101.9,124,101,123.1,101,122z"/>
			<g>
				<circle class="st2" cx="206" cy="112" r="7.5"/>
				<path class="st0" d="M206,106c3.3,0,6,2.7,6,6s-2.7,6-6,6s-6-2.7-6-6S202.7,106,206,106 M206,103c-5,0-9,4-9,9s4,9,9,9s9-4,9-9
					S211,103,206,103L206,103z"/>
			</g>
		</g>
		<g>
			<g>
				<rect x="23" y="151" class="st1" width="210" height="50"/>
				<g>
					<path class="st0" d="M230,154v44H26v-44H230 M234,148H22c-1.1,0-2,0.9-2,2v52c0,1.1,0.9,2,2,2h212c1.1,0,2-0.9,2-2v-52
						C236,148.9,235.1,148,234,148L234,148z"/>
				</g>
			</g>
			<circle class="st0" cx="176" cy="176" r="5"/>
			<circle class="st0" cx="156" cy="176" r="5"/>
			<circle class="st0" cx="136" cy="176" r="5"/>
			<path class="st0" d="M41,186v-20c0-1.1,0.9-2,2-2h4c1.1,0,2,0.9,2,2v20c0,1.1-0.9,2-2,2h-4C41.9,188,41,187.1,41,186z"/>
			<path class="st0" d="M61,186v-20c0-1.1,0.9-2,2-2h4c1.1,0,2,0.9,2,2v20c0,1.1-0.9,2-2,2h-4C61.9,188,61,187.1,61,186z"/>
			<path class="st0" d="M81,186v-20c0-1.1,0.9-2,2-2h4c1.1,0,2,0.9,2,2v20c0,1.1-0.9,2-2,2h-4C81.9,188,81,187.1,81,186z"/>
			<path class="st0" d="M101,186v-20c0-1.1,0.9-2,2-2h4c1.1,0,2,0.9,2,2v20c0,1.1-0.9,2-2,2h-4C101.9,188,101,187.1,101,186z"/>
			<g>
				<circle class="st2" cx="206" cy="176" r="7.5"/>
				<path class="st0" d="M206,170c3.3,0,6,2.7,6,6s-2.7,6-6,6s-6-2.7-6-6S202.7,170,206,170 M206,167c-5,0-9,4-9,9s4,9,9,9s9-4,9-9
					S211,167,206,167L206,167z"/>
			</g>
		</g>
	</g>
	<path class="st0" d="M202,224H54c-1.1,0-2-0.9-2-2v-4c0-1.1,0.9-2,2-2h148c1.1,0,2,0.9,2,2v4C204,223.1,203.1,224,202,224z"/>
</g>
<g>
	<g>
		<path class="st1" d="M192,252c-33.1,0-60-26.9-60-60s26.9-60,60-60s60,26.9,60,60S225.1,252,192,252z"/>
		<path class="st0" d="M192,136c30.9,0,56,25.1,56,56s-25.1,56-56,56s-56-25.1-56-56S161.1,136,192,136 M192,128
			c-35.3,0-64,28.7-64,64s28.7,64,64,64s64-28.7,64-64S227.3,128,192,128L192,128z"/>
	</g>
	<g>
		<path class="st2" d="M207.6,213.2l-36.8-36.8c-0.8-0.8-0.8-2,0-2.8l2.8-2.8c0.8-0.8,2-0.8,2.8,0l36.8,36.8c0.8,0.8,0.8,2,0,2.8
			l-2.8,2.8C209.6,214,208.3,214,207.6,213.2z"/>
		<path class="st2" d="M213.2,176.4l-36.8,36.8c-0.8,0.8-2,0.8-2.8,0l-2.8-2.8c-0.8-0.8-0.8-2,0-2.8l36.8-36.8c0.8-0.8,2-0.8,2.8,0
			l2.8,2.8C214,174.4,214,175.7,213.2,176.4z"/>
	</g>
</g>
</svg>
