<?xml version="1.0" encoding="utf-8"?>
<!-- Generator: Adobe Illustrator 19.2.1, SVG Export Plug-In . SVG Version: 6.00 Build 0)  -->
<svg version="1.1" id="Layer_1" xmlns="http://www.w3.org/2000/svg" xmlns:xlink="http://www.w3.org/1999/xlink" x="0px" y="0px"
	 viewBox="0 0 256 256" style="enable-background:new 0 0 256 256;" xml:space="preserve">
<style type="text/css">
	.st0{fill:#EC1F27;}
	.st1{fill:#212A33;}
	.st2{fill:#4D555C;}
	.st3{fill:#FFFFFF;stroke:#212A33;stroke-width:6;stroke-miterlimit:10;}
	.st4{fill:#EC1F27;stroke:#212A33;stroke-width:6;stroke-miterlimit:10;}
	.st5{fill:none;stroke:#212A33;stroke-width:6;stroke-miterlimit:10;}
	.st6{fill:#FFFFFF;}
</style>
<g>
	<path class="st1" d="M148,37h-36c-7.2,0-13.3,5.2-14.7,12H96c-8.3,0-15,6.7-15,15v44.2l5,5c0.3,15.1,6.1,28.7,15,37.8v36h54v-36
		c8.9-9.1,14.6-22.5,15-37.6l5-4V64C175,49.1,162.9,37,148,37z M96,55h7v-3c0-5,4-9,9-9h36c11.6,0,21,9.4,21,21v29h-3
		c-1.7,0-3-1.3-3-3v-6c0-8.3-6.7-15-15-15h-40c-8.3,0-15,6.7-15,15v6c0,1.7-1.3,3-3,3h-3V64C87,59,91,55,96,55z M107,181v-24.9
		c6.2,4.4,13.4,6.9,21,6.9c7.6,0,14.8-2.5,21-6.9V181H107z M164,110.6v1.4c0,24.8-16.1,45-36,45s-36-20.2-36-45v-1.2l-5-5V99h3
		c5,0,9-4,9-9v-6c0-5,4-9,9-9h40c5,0,9,4,9,9v6c0,5,4,9,9,9h3v7.6L164,110.6z"/>
	<g>
		<g>
			<g>
				<path class="st0" d="M222.3,210c-19.2-14.1-48.8-26-94.3-26s-75.2,11.9-94.3,26c22.9,26.3,56.7,43,94.3,43
					S199.4,236.3,222.3,210z"/>
				<path class="st1" d="M31.7,207.7c1.3,1.5,2.6,3,3.9,4.5C63.9,191.7,100.6,187,128,187c38,0,69.6,8.7,92.3,25.3
					c1.4-1.5,2.7-3,4-4.6C194.7,185.9,156.5,181,128,181C80.7,181,50.5,193.9,31.7,207.7z"/>
			</g>
			<g>
				<path class="st1" d="M130,220h-4c-1.1,0-2-0.9-2-2v-4c0-1.1,0.9-2,2-2h4c1.1,0,2,0.9,2,2v4C132,219.1,131.1,220,130,220z"/>
			</g>
			<g>
				<path class="st1" d="M130,236h-4c-1.1,0-2-0.9-2-2v-4c0-1.1,0.9-2,2-2h4c1.1,0,2,0.9,2,2v4C132,235.1,131.1,236,130,236z"/>
			</g>
		</g>
		<g>
			<g>
				<polygon class="st0" points="75,191 96,174 128,184 128,191 112,207 				"/>
				<path class="st1" d="M112.7,210.6l-43.4-18.8l26.1-21.1l35.6,11.1v10.4L112.7,210.6z M80.7,190.2l30.6,13.2l13.7-13.7v-3.6
					l-28.4-8.9L80.7,190.2z"/>
			</g>
			<g>
				<polygon class="st0" points="181,191 160,174 128,184 128,191 144,207 				"/>
				<path class="st1" d="M143.3,210.6L125,192.2v-10.4l35.6-11.1l26.1,21.1L143.3,210.6z M131,189.8l13.7,13.7l30.6-13.2l-15.9-12.9
					l-28.4,8.9V189.8z"/>
			</g>
		</g>
	</g>
	<path class="st1" d="M128,256C57.4,256,0,198.6,0,128S57.4,0,128,0s128,57.4,128,128S198.6,256,128,256z M128,6
		C60.7,6,6,60.7,6,128s54.7,122,122,122s122-54.7,122-122S195.3,6,128,6z"/>
</g>
<g>
	<g>
		<path class="st6" d="M192,253c-33.6,0-61-27.4-61-61s27.4-61,61-61s61,27.4,61,61S225.6,253,192,253z"/>
		<path class="st1" d="M192,134c32,0,58,26,58,58s-26,58-58,58s-58-26-58-58S160,134,192,134 M192,128c-35.3,0-64,28.7-64,64
			s28.7,64,64,64s64-28.7,64-64S227.3,128,192,128L192,128z"/>
	</g>
	<g>
		<path class="st0" d="M186.6,213.2l-19.8-19.8c-0.8-0.8-0.8-2,0-2.8l2.8-2.8c0.8-0.8,2-0.8,2.8,0l19.8,19.8c0.8,0.8,0.8,2,0,2.8
			l-2.8,2.8C188.7,214,187.4,214,186.6,213.2z"/>
		<path class="st0" d="M226.2,176.4l-36.8,36.8c-0.8,0.8-2,0.8-2.8,0l-2.8-2.8c-0.8-0.8-0.8-2,0-2.8l36.8-36.8c0.8-0.8,2-0.8,2.8,0
			l2.8,2.8C227,174.4,227,175.7,226.2,176.4z"/>
	</g>
</g>
</svg>
