<?xml version="1.0" encoding="utf-8"?>
<!-- Generator: Adobe Illustrator 19.2.1, SVG Export Plug-In . SVG Version: 6.00 Build 0)  -->
<svg version="1.1" id="Layer_1" xmlns="http://www.w3.org/2000/svg" xmlns:xlink="http://www.w3.org/1999/xlink" x="0px" y="0px"
	 viewBox="0 0 256 256" style="enable-background:new 0 0 256 256;" xml:space="preserve">
<style type="text/css">
	.st0{fill:#EC1F27;}
	.st1{fill:#212A33;}
	.st2{fill:#4D555C;}
	.st3{fill:#FFFFFF;stroke:#212A33;stroke-width:6;stroke-miterlimit:10;}
	.st4{fill:#EC1F27;stroke:#212A33;stroke-width:6;stroke-miterlimit:10;}
	.st5{fill:none;stroke:#212A33;stroke-width:6;stroke-miterlimit:10;}
	.st6{fill:#FFFFFF;}
</style>
<g>
	<path class="st1" d="M199,101h-6V70.6C193,35,163.8,6,128,6S63,35,63,70.6V101h-6V70.6C57,31.7,88.9,0,128,0s71,31.7,71,70.6V101z"
		/>
</g>
<g>
	<path class="st1" d="M172,92c-1.7,0-3-1.3-3-3V71.1c0-22.7-18.4-41.1-41-41.1S87,48.4,87,71.1V89c0,1.7-1.3,3-3,3s-3-1.3-3-3V71.1
		c0-26,21.1-47.1,47-47.1s47,21.1,47,47.1V89C175,90.7,173.7,92,172,92z"/>
</g>
<g>
	<path class="st1" d="M205,256H51c-10.5,0-19-8.5-19-19V117c0-10.5,8.5-19,19-19h154c10.5,0,19,8.5,19,19v120
		C224,247.5,215.5,256,205,256z M51,104c-7.2,0-13,5.8-13,13v120c0,7.2,5.8,13,13,13h154c7.2,0,13-5.8,13-13V117c0-7.2-5.8-13-13-13
		H51z"/>
</g>
<g>
	<g>
		<polygon class="st0" points="201,127 221,117 221,237 201,227 		"/>
		<path class="st1" d="M221,240c-0.5,0-0.9-0.1-1.3-0.3l-20-10c-1-0.5-1.7-1.5-1.7-2.7V127c0-1.1,0.6-2.2,1.7-2.7l20-10
			c0.9-0.5,2-0.4,2.9,0.1c0.9,0.5,1.4,1.5,1.4,2.6v120c0,1-0.5,2-1.4,2.6C222.1,239.8,221.5,240,221,240z M204,225.1l14,7V121.9
			l-14,7V225.1z"/>
	</g>
	<g>
		<path class="st1" d="M221,205h-20c-1.7,0-3-1.3-3-3s1.3-3,3-3h20c1.7,0,3,1.3,3,3S222.7,205,221,205z"/>
	</g>
	<g>
		<path class="st1" d="M221,189h-20c-1.7,0-3-1.3-3-3s1.3-3,3-3h20c1.7,0,3,1.3,3,3S222.7,189,221,189z"/>
	</g>
	<g>
		<path class="st1" d="M221,173h-20c-1.7,0-3-1.3-3-3s1.3-3,3-3h20c1.7,0,3,1.3,3,3S222.7,173,221,173z"/>
	</g>
	<g>
		<path class="st1" d="M221,157h-20c-1.7,0-3-1.3-3-3s1.3-3,3-3h20c1.7,0,3,1.3,3,3S222.7,157,221,157z"/>
	</g>
	<g>
		<path class="st1" d="M221,141h-20c-1.7,0-3-1.3-3-3s1.3-3,3-3h20c1.7,0,3,1.3,3,3S222.7,141,221,141z"/>
	</g>
	<g>
		<path class="st1" d="M221,221h-20c-1.7,0-3-1.3-3-3s1.3-3,3-3h20c1.7,0,3,1.3,3,3S222.7,221,221,221z"/>
	</g>
</g>
<g>
	<g>
		<polygon class="st0" points="55,227 35,237 35,117 55,127 		"/>
		<path class="st1" d="M35,240c-0.5,0-1.1-0.2-1.6-0.4C32.5,239,32,238,32,237V117c0-1,0.5-2,1.4-2.6c0.9-0.5,2-0.6,2.9-0.1l20,10
			c1,0.5,1.7,1.5,1.7,2.7v100c0,1.1-0.6,2.2-1.7,2.7l-20,10C35.9,239.9,35.5,240,35,240z M38,121.9v110.3l14-7v-96.3L38,121.9z
			 M55,227L55,227L55,227z"/>
	</g>
	<g>
		<path class="st1" d="M55,155H35c-1.7,0-3-1.3-3-3s1.3-3,3-3h20c1.7,0,3,1.3,3,3S56.7,155,55,155z"/>
	</g>
	<g>
		<path class="st1" d="M55,171H35c-1.7,0-3-1.3-3-3s1.3-3,3-3h20c1.7,0,3,1.3,3,3S56.7,171,55,171z"/>
	</g>
	<g>
		<path class="st1" d="M55,187H35c-1.7,0-3-1.3-3-3s1.3-3,3-3h20c1.7,0,3,1.3,3,3S56.7,187,55,187z"/>
	</g>
	<g>
		<path class="st1" d="M55,203H35c-1.7,0-3-1.3-3-3s1.3-3,3-3h20c1.7,0,3,1.3,3,3S56.7,203,55,203z"/>
	</g>
	<g>
		<path class="st1" d="M55,219H35c-1.7,0-3-1.3-3-3s1.3-3,3-3h20c1.7,0,3,1.3,3,3S56.7,219,55,219z"/>
	</g>
	<g>
		<path class="st1" d="M55,139H35c-1.7,0-3-1.3-3-3s1.3-3,3-3h20c1.7,0,3,1.3,3,3S56.7,139,55,139z"/>
	</g>
</g>
<g>
	<g>
		<path class="st0" d="M128,116c-33.6,0-61,27.4-61,61s27.4,61,61,61s61-27.4,61-61S161.6,116,128,116z M165.7,162.2l-38.2,38.2
			c-0.9,0.9-2.2,1.5-3.5,1.5s-2.6-0.5-3.5-1.5l-21.2-21.2c-1.2-1.2-1.2-3.1,0-4.2l5.7-5.7c0.6-0.6,1.3-0.9,2.1-0.9s1.6,0.3,2.1,0.9
			l14.8,14.8l31.8-31.8c0.6-0.6,1.3-0.9,2.1-0.9s1.6,0.3,2.1,0.9l5.7,5.7C166.9,159.1,166.9,161,165.7,162.2z"/>
		<g>
			<path class="st1" d="M158,154.4l5.7,5.7l-38.2,38.2c-0.4,0.4-0.9,0.6-1.4,0.6s-1-0.2-1.4-0.6L101.4,177l5.7-5.7l17,17L158,154.4
				 M158,148.4c-1.6,0-3.1,0.6-4.2,1.8L124,179.8l-12.7-12.7c-1.2-1.2-2.7-1.8-4.2-1.8c-1.5,0-3.1,0.6-4.2,1.8l-5.7,5.7
				c-1.1,1.1-1.8,2.7-1.8,4.2c0,1.6,0.6,3.1,1.8,4.2l21.2,21.2c1.5,1.5,3.5,2.3,5.7,2.3s4.1-0.8,5.7-2.3l38.2-38.2
				c2.3-2.3,2.3-6.1,0-8.5l-5.7-5.7C161.1,149,159.6,148.4,158,148.4L158,148.4z"/>
		</g>
	</g>
	<g>
		<g>
			<path class="st1" d="M128,119c32,0,58,26,58,58s-26,58-58,58s-58-26-58-58S96,119,128,119 M128,113c-35.3,0-64,28.7-64,64
				s28.7,64,64,64s64-28.7,64-64S163.3,113,128,113L128,113z"/>
		</g>
	</g>
</g>
</svg>
