<?xml version="1.0" encoding="utf-8"?>
<!-- Generator: Adobe Illustrator 19.2.1, SVG Export Plug-In . SVG Version: 6.00 Build 0)  -->
<svg version="1.1" id="Layer_1" xmlns="http://www.w3.org/2000/svg" xmlns:xlink="http://www.w3.org/1999/xlink" x="0px" y="0px"
	 viewBox="0 0 256 256" style="enable-background:new 0 0 256 256;" xml:space="preserve">
<style type="text/css">
	.st0{fill:#EC1F27;}
	.st1{fill:#212A33;}
	.st2{fill:#4D555C;}
	.st3{fill:#FFFFFF;stroke:#212A33;stroke-width:6;stroke-miterlimit:10;}
	.st4{fill:#EC1F27;stroke:#212A33;stroke-width:6;stroke-miterlimit:10;}
	.st5{fill:none;stroke:#212A33;stroke-width:6;stroke-miterlimit:10;}
	.st6{fill:#FFFFFF;}
</style>
<g>
	<g>
		<path class="st1" d="M179,147h-6v-32c0-24.8-20.2-45-45-45s-45,20.2-45,45v32h-6v-32c0-28.1,22.9-51,51-51s51,22.9,51,51V147z"/>
	</g>
	<g>
		<path class="st1" d="M152,134c-1.7,0-3-1.3-3-3v-16c0-11.6-9.4-21-21-21s-21,9.4-21,21v16c0,1.7-1.3,3-3,3s-3-1.3-3-3v-16
			c0-14.9,12.1-27,27-27s27,12.1,27,27v16C155,132.7,153.7,134,152,134z"/>
	</g>
	<g>
		<path class="st0" d="M173,253H77c-8.8,0-16-7.2-16-16v-80c0-8.8,7.2-16,16-16h96c8.8,0,16,7.2,16,16v80
			C189,245.8,181.8,253,173,253z"/>
		<path class="st1" d="M173,256H77c-10.5,0-19-8.5-19-19v-80c0-10.5,8.5-19,19-19h96c10.5,0,19,8.5,19,19v80
			C192,247.5,183.5,256,173,256z M77,144c-7.2,0-13,5.8-13,13v80c0,7.2,5.8,13,13,13h96c7.2,0,13-5.8,13-13v-80c0-7.2-5.8-13-13-13
			H77z"/>
	</g>
	<g>
		<g>
			<path class="st1" d="M130,175h-4c-1.1,0-2-0.9-2-2v-4c0-1.1,0.9-2,2-2h4c1.1,0,2,0.9,2,2v4C132,174.1,131.1,175,130,175z"/>
		</g>
	</g>
	<g>
		<g>
			<path class="st1" d="M114,175h-4c-1.1,0-2-0.9-2-2v-4c0-1.1,0.9-2,2-2h4c1.1,0,2,0.9,2,2v4C116,174.1,115.1,175,114,175z"/>
		</g>
	</g>
	<g>
		<g>
			<path class="st1" d="M190,214H79c-1.7,0-3-1.3-3-3l0,0c0-1.7,1.3-3,3-3h111c1.1,0,2,0.9,2,2v2C192,213.1,191.1,214,190,214z"/>
		</g>
	</g>
	<g>
		<g>
			<path class="st1" d="M177,238H66c-1.1,0-2-0.9-2-2v-2c0-1.1,0.9-2,2-2h111c1.7,0,3,1.3,3,3l0,0C180,236.7,178.7,238,177,238z"/>
		</g>
	</g>
	<g>
		<g>
			<path class="st1" d="M146,175h-4c-1.1,0-2-0.9-2-2v-4c0-1.1,0.9-2,2-2h4c1.1,0,2,0.9,2,2v4C148,174.1,147.1,175,146,175z"/>
		</g>
	</g>
	<g>
		
			<rect x="74.2" y="220" transform="matrix(0.7214 -0.6925 0.6925 0.7214 -128.9333 125.4787)" class="st1" width="34.7" height="6"/>
	</g>
	<g>
		
			<rect x="98.2" y="220" transform="matrix(0.7214 -0.6925 0.6925 0.7214 -122.248 142.0979)" class="st1" width="34.7" height="6"/>
	</g>
	<g>
		
			<rect x="122.2" y="220" transform="matrix(0.7214 -0.6925 0.6925 0.7214 -115.5627 158.7173)" class="st1" width="34.7" height="6"/>
	</g>
	<g>
		
			<rect x="146.2" y="220" transform="matrix(0.7214 -0.6925 0.6925 0.7214 -108.8774 175.3365)" class="st1" width="34.7" height="6"/>
	</g>
</g>
<g>
	<path class="st1" d="M208,166.9c-1.6,0-2.9-1.2-3-2.8c-0.1-1.7,1.2-3.1,2.8-3.2c23.7-1.5,42.2-21.2,42.2-44.9
		c0-22.1-15.8-40.8-37.6-44.4l-2.3-0.4l-0.2-2.3C208.3,51.9,194.2,39,177,39c-1.4,0-2.9,0.1-4.4,0.3l-2,0.3l-1-1.8
		C158.8,18.2,138.3,6,116,6C82.4,6,55,33.4,55,67c0,0.2,0,0.3,0,0.5l0.1,3.6L51.5,71c-0.2,0-0.4,0-0.5,0C26.2,71,6,91.2,6,116
		c0,21.6,15.4,40.2,36.6,44.2c1.6,0.3,2.7,1.9,2.4,3.5c-0.3,1.6-1.9,2.7-3.5,2.4C17.4,161.5,0,140.5,0,116c0-27.5,21.8-49.9,49-51
		c1-36,30.7-65,67-65c23.8,0,45.8,12.6,57.8,33.1C174.9,33,176,33,177,33c19.5,0,35.7,14.1,38.6,33.1C239.1,71,256,91.7,256,116
		c0,26.9-21,49.2-47.8,50.9C208.1,166.9,208.1,166.9,208,166.9z"/>
</g>
</svg>
