<?xml version="1.0" encoding="utf-8"?>
<!-- Generator: Adobe Illustrator 19.2.1, SVG Export Plug-In . SVG Version: 6.00 Build 0)  -->
<svg version="1.1" id="Layer_1" xmlns="http://www.w3.org/2000/svg" xmlns:xlink="http://www.w3.org/1999/xlink" x="0px" y="0px"
	 viewBox="0 0 256 256" style="enable-background:new 0 0 256 256;" xml:space="preserve">
<style type="text/css">
	.st0{fill:#EC1F27;}
	.st1{fill:#212A33;}
	.st2{fill:#4D555C;}
	.st3{fill:#FFFFFF;stroke:#212A33;stroke-width:6;stroke-miterlimit:10;}
	.st4{fill:#EC1F27;stroke:#212A33;stroke-width:6;stroke-miterlimit:10;}
	.st5{fill:none;stroke:#212A33;stroke-width:6;stroke-miterlimit:10;}
	.st6{fill:#FFFFFF;}
</style>
<g>
	<g>
		<path class="st1" d="M199,183H57V92c0-19.3,15.7-35,35-35h72c19.3,0,35,15.7,35,35V183z M63,177h130V92c0-16-13-29-29-29H92
			c-16,0-29,13-29,29V177z"/>
	</g>
	<g>
		<path class="st0" d="M40,181c0-64.3,69-53,69-73h38c0,20,69,8.7,69,73H40z"/>
		<path class="st1" d="M219,184H37v-3c0-43.4,30.6-54.3,50.8-61.5c11.3-4,18.2-6.7,18.2-11.5v-3h44v3c0,4.8,6.9,7.5,18.2,11.5
			c20.2,7.2,50.8,18.1,50.8,61.5V184z M43.1,178h169.9c-1.3-36.7-27.5-46-46.8-52.8c-10.5-3.7-19.8-7-21.8-14.2h-32.8
			c-2,7.1-11.3,10.4-21.8,14.2C70.6,132,44.4,141.3,43.1,178z"/>
	</g>
	<g>
		<rect x="109" y="95" class="st6" width="38" height="28"/>
		<path class="st1" d="M150,126h-44V92h44V126z M112,120h32V98h-32V120z"/>
	</g>
	<g>
		<path class="st6" d="M164,23c0-11-9-20-20-20h-29.1c-5.4,0-9.9,4.6-9.9,10h-1c-6.6,0-12,5.4-12,12v32.8l4.1,4.1
			c0,21.7,14.3,39.1,31.9,39.1s31.9-17.4,31.9-39.1l4.1-3.3V23z"/>
		<path class="st1" d="M128,104c-18.9,0-34.3-18.2-34.9-40.8L89,59.1V25c0-7.7,5.8-14.1,13.3-14.9C103.7,4.4,108.9,0,114.9,0H144
			c12.7,0,23,10.3,23,23v37.1l-4.1,3.3C162.2,85.9,146.8,104,128,104z M95,56.6l4.1,4.1v1.2c0,19.9,13,36.1,28.9,36.1
			s28.9-16.2,28.9-36.1v-1.4l4.1-3.3V23c0-9.4-7.6-17-17-17h-29.1c-3.7,0-6.9,3.2-6.9,7v3h-4c-5,0-9,4-9,9V56.6z"/>
	</g>
	<g>
		<path class="st6" d="M92,50h6c2.2,0,4-1.8,4-4v-6c0-5.5,4.5-10,10-10h32c5.5,0,10,4.5,10,10v6c0,2.2,1.8,4,4,4h6"/>
		<path class="st1" d="M164,53h-6c-3.9,0-7-3.1-7-7v-6c0-3.9-3.1-7-7-7h-32c-3.9,0-7,3.1-7,7v6c0,3.9-3.1,7-7,7h-6v-6h6
			c0.6,0,1-0.4,1-1v-6c0-7.2,5.8-13,13-13h32c7.2,0,13,5.8,13,13v6c0,0.6,0.4,1,1,1h6V53z"/>
	</g>
	<g>
		<g>
			<polygon class="st0" points="88,121.9 102.8,109 128,119 128,126 111,136 			"/>
			<path class="st1" d="M111,139.5l-28-17.2l19.3-16.7L131,117v10.8L111,139.5z M93.1,121.5l18,11l14-8.2V121l-21.6-8.5L93.1,121.5z
				"/>
		</g>
		<g>
			<polygon class="st0" points="168,121.9 153.2,109 128,119 128,126 145,136 			"/>
			<path class="st1" d="M145,139.5l-20-11.8V117l28.7-11.4l19.3,16.7L145,139.5z M131,124.3l14,8.2l18-11l-10.4-9L131,121V124.3z"/>
		</g>
	</g>
	<g>
		<path class="st1" d="M0,178v78h41c1.7,0,3-1.3,3-3l0,0c0-1.7-1.3-3-3-3H6v-66h244v66h-35c-1.7,0-3,1.3-3,3l0,0c0,1.7,1.3,3,3,3h41
			v-78H0z"/>
	</g>
	<g>
		<g>
			<path class="st1" d="M192.9,255H63.1c-3.1,0-5.9-2.1-6.8-5.2L45,208.4V208c0-3.9,3.1-7,7-7h152c3.9,0,7,3.1,7,7v0.4l-11.3,41.4
				C198.9,252.9,196.1,255,192.9,255z M51,207.7l11.1,40.5c0.1,0.4,0.5,0.7,1,0.7h129.9c0.4,0,0.8-0.3,1-0.7l11.1-40.5
				c-0.1-0.4-0.5-0.7-1-0.7H52C51.5,207,51.2,207.3,51,207.7z"/>
		</g>
		<g>
			<path class="st6" d="M192,253H64c-2.2,0-4-1.8-4-4v-80c0-6.6,5.4-12,12-12h112c6.6,0,12,5.4,12,12v80
				C196,251.2,194.2,253,192,253z"/>
			<path class="st1" d="M192,256H64c-3.9,0-7-3.1-7-7v-80c0-8.3,6.7-15,15-15h112c8.3,0,15,6.7,15,15v80
				C199,252.9,195.9,256,192,256z M72,160c-5,0-9,4-9,9v80c0,0.6,0.4,1,1,1h128c0.6,0,1-0.4,1-1v-80c0-5-4-9-9-9H72z"/>
		</g>
		<g>
			<circle class="st0" cx="128" cy="205" r="12"/>
			<path class="st1" d="M128,220c-8.3,0-15-6.7-15-15s6.7-15,15-15s15,6.7,15,15S136.3,220,128,220z M128,196c-5,0-9,4-9,9s4,9,9,9
				s9-4,9-9S133,196,128,196z"/>
		</g>
	</g>
</g>
</svg>
